<svg width="47" height="52" viewBox="0 0 47 52" fill="none" xmlns="http://www.w3.org/2000/svg">
<path fill-rule="evenodd" clip-rule="evenodd" d="M23.7351 2.80092C23.7351 2.61834 23.8259 2.43575 23.9166 2.25316L23.9166 2.25314C24.0981 1.79666 24.2795 1.88795 24.6424 2.43574C24.6424 2.89222 25.2776 3.25741 25.6405 2.80092C26.2756 1.97925 27.0014 2.52704 27.2736 3.34871C27.4551 3.98779 27.2736 4.62687 26.82 5.17465C26.5478 5.63114 26.0034 6.17892 25.459 6.36152C24.6207 6.5724 24.3203 6.18794 23.978 5.74986L23.978 5.74984C23.8757 5.61894 23.7696 5.48326 23.6444 5.35725C23.1907 4.80946 22.7371 4.62687 22.0112 4.62687C21.8751 4.62687 21.739 4.64969 21.603 4.67252C21.4669 4.69534 21.3308 4.71817 21.1947 4.71817C20.3781 4.35298 20.3781 3.89649 21.1947 3.44001C21.6323 3.21984 22.1285 3.23565 22.5891 3.25032C22.7015 3.2539 22.8118 3.25741 22.9185 3.25741C23.0079 3.25741 23.0863 3.24081 23.1536 3.21152C23.3939 3.25214 23.6544 3.12601 23.7351 2.80092ZM22.8116 2.07024C22.7471 2.06989 22.6829 2.06929 22.6191 2.0687C21.7383 2.06049 20.9308 2.05296 20.1966 2.70963C19.6522 3.25741 19.0171 4.17038 19.38 4.90076C19.7656 5.67661 20.4241 5.67409 21.1301 5.6714C21.421 5.67029 21.72 5.66915 22.0112 5.72244C22.6477 5.80783 23.0262 6.21267 23.4066 6.61952C23.8396 7.08265 24.275 7.54838 25.0961 7.54838C27.0014 7.54838 28.7253 5.26595 28.4531 3.44001C28.229 1.93632 26.8973 0.742208 25.6741 1.33632C25.0358 0.120999 23.3159 0.543465 22.8116 2.07024ZM27.7272 9.92244C27.7272 7.64001 26.0033 9.00947 25.6404 10.3789C25.5332 10.8104 25.1095 10.8914 24.8553 10.7349C24.8481 10.7553 24.8404 10.7755 24.8322 10.7955C25.6533 11.1832 26.1289 11.9997 26.2077 12.8513C26.3 12.8242 26.394 12.796 26.4891 12.7675C27.7514 12.3884 29.2237 11.9463 30.0861 13.2086C30.6726 13.9954 30.3699 14.8764 29.7493 15.5134C29.8146 15.5459 29.8794 15.5792 29.9433 15.6137C30.0445 15.5017 30.1426 15.3904 30.2392 15.2808L30.2392 15.2808L30.2392 15.2808C30.7467 14.7051 31.2109 14.1785 31.8406 13.867C31.2279 12.3834 31.9962 11.0959 33.0817 10.5715L33.0803 10.5615C33.0387 10.268 32.863 9.99375 32.6941 9.7299L32.6941 9.72989C32.5112 9.44444 32.3362 9.17118 32.3472 8.89891C32.2655 9.28223 31.5278 9.26302 31.3565 8.91817C30.3946 7.06301 29.5035 8.69962 28.996 9.79874C28.997 9.83936 28.9975 9.8806 28.9975 9.92244L28.9454 9.90934C28.9162 9.97354 28.8885 10.0353 28.8623 10.0936L28.816 10.1963C28.5438 10.7441 27.7272 10.4702 27.7272 9.92244ZM28.6453 8.31783C27.7814 6.83038 25.5762 7.6797 24.8642 9.65452C24.6855 9.06069 24.2218 8.51561 23.5541 8.27848C22.4383 7.8855 21.2196 8.42459 20.6151 9.3226C20.1837 9.06008 19.646 8.91756 19.1083 8.91756C18.201 8.91756 17.2937 9.46535 16.5678 10.0131C15.8167 10.643 15.627 11.2294 15.4028 11.9222C15.306 12.2213 15.2027 12.5403 15.0451 12.8912C14.4754 12.1493 13.5209 11.7764 12.4846 12.0218C10.9344 12.3932 10.5253 13.9733 10.6221 15.3853C9.54159 15.2358 8.52099 15.7045 8.31093 17.0432C8.05742 18.4887 9.14191 19.9343 10.2449 20.7897C10.182 20.9919 10.2236 21.2352 10.3697 21.4049C10.822 23.871 11.3765 26.3027 11.9305 28.7318L11.9305 28.7319L11.9305 28.7319L11.9305 28.7319L11.9305 28.7319L11.9305 28.7319L11.9305 28.732L11.9305 28.732L11.9305 28.732L11.9305 28.732L11.9305 28.7321L11.9305 28.7321L11.9305 28.7321L11.9305 28.7321L11.9305 28.7322L11.9306 28.7322L11.9306 28.7322L11.9306 28.7322C12.5778 31.5704 13.2242 34.4051 13.7058 37.287C13.5835 37.1715 13.4151 37.1031 13.2108 37.1288C12.934 37.1845 12.6573 37.1808 12.3908 37.1771C11.7837 37.1689 11.2301 37.1613 10.8518 37.8592C10.784 37.9616 10.7288 38.0768 10.6721 38.1952C10.5772 38.3934 10.4779 38.6007 10.3074 38.7722C10.2072 38.9235 10.0516 39.0191 9.88654 39.1205C9.75274 39.2027 9.61271 39.2887 9.49086 39.4113C8.65339 40.1243 8.27332 40.9755 8.74037 41.6052C8.29173 41.891 7.94844 42.2916 7.94844 42.8806C7.94844 43.611 8.58356 44.25 9.12794 44.5239C10.0752 45.0005 11.527 45.1217 11.9783 44.3195C12.8575 44.752 13.8893 44.7257 14.6919 44.031C14.7991 44.7695 14.9092 45.5109 15.0252 46.2583C15.047 46.4557 15.0584 46.7639 15.0718 47.1296C15.1143 48.2857 15.1779 50.0163 15.6604 50.6405C17.0385 52.1733 20.4464 51.9555 22.7777 51.8065C23.3625 51.7691 23.8795 51.7361 24.2798 51.7361C24.6358 51.7361 24.9902 51.7369 25.3434 51.7376C28.8608 51.7452 32.2489 51.7524 35.7119 51.0057C35.9841 50.9144 36.0748 50.7318 36.1655 50.4579C36.1866 50.1642 36.2098 49.8708 36.2352 49.5777C36.2948 49.6065 36.3623 49.6268 36.4376 49.6362C36.9723 49.6362 37.3903 49.4405 37.6916 49.0747C37.9082 49.179 38.1594 49.2257 38.4337 49.1797C38.8243 49.1142 39.0281 48.8606 39.1791 48.554C39.2032 48.6122 39.2271 48.6688 39.2503 48.7234C39.9758 50.1023 41.1309 49.7517 42.2068 49.2082C44.0469 50.6981 46.1867 48.8741 46.8717 46.8062C47.0532 45.9845 47.0532 44.9802 46.3273 44.4325C45.8304 44.0435 45.2998 44.0604 44.8175 44.2566C44.4543 43.1604 43.4625 42.2797 42.2444 42.4239C42.0276 42.436 41.8412 42.4691 41.6808 42.5203C41.6424 41.9825 41.4011 41.5119 40.7931 41.3284C40.3361 41.2134 39.8073 41.2794 39.3197 41.4351C39.2859 41.0015 39.1995 40.5664 38.9785 40.2328C38.6599 39.784 38.1624 39.7404 37.6744 39.9123C37.9805 38.3353 38.3071 36.761 38.6337 35.1866L38.634 35.1851C39.4748 31.1322 40.3159 27.0782 40.8078 22.9739C40.8836 22.8483 40.8927 22.7006 40.856 22.5617C40.9371 21.8498 41.0074 21.1364 41.065 20.4211C41.065 20.3562 41.0577 20.2968 41.044 20.2429C41.2523 20.1798 41.4869 20.1264 41.7313 20.0707C42.5945 19.8741 43.5806 19.6496 43.9684 18.8693C44.5634 17.6717 43.4061 17.0351 42.5862 16.5842C42.531 16.5538 42.4774 16.5243 42.4259 16.4956C42.3927 16.4956 42.3595 16.4956 42.3352 16.5045V16.313C42.2445 16.176 42.1764 16.0619 42.1084 15.9478C42.0403 15.8337 41.9723 15.7195 41.8815 15.5826C41.6094 15.2174 41.4279 15.0348 40.9742 14.9435C40.9578 14.9389 40.9413 14.9345 40.9249 14.9302C41.1009 13.8558 40.6509 12.0199 39.703 11.7733C39.5901 9.88784 36.6281 9.0098 35.5425 10.8554C35.1533 10.5057 34.6928 10.3397 34.2268 10.3223C34.0742 9.45058 33.555 8.41493 32.8082 7.9139C32.5188 7.70596 32.2107 7.63063 31.9523 7.68791C30.8282 6.11023 29.5776 6.93803 28.6453 8.31783ZM39.3713 22.5481C39.3365 22.4447 39.2964 22.3442 39.2504 22.2471C38.7964 21.2193 38.7683 21.2271 38.3893 21.3325C38.1623 21.3957 37.8093 21.4938 37.1636 21.4254C36.4722 21.3622 35.6501 21.4742 34.8784 21.5793L34.8783 21.5793C34.5361 21.626 34.2039 21.6713 33.8973 21.6993C31.1753 21.8819 28.3627 21.8819 25.6408 21.8819C24.0344 21.852 22.4183 21.8122 20.7957 21.7723L20.7955 21.7723C17.6626 21.6953 14.5053 21.6176 11.3466 21.6088C11.4417 22.1308 11.5385 22.652 11.6367 23.1724C11.6749 23.1645 11.7156 23.1602 11.759 23.1602C13.3586 23.1602 14.9682 23.1703 16.5811 23.1805C19.8172 23.2008 23.0668 23.2212 26.276 23.1602C27.2677 23.1359 28.4786 23.2089 29.7833 23.2875C33.0475 23.4843 36.8986 23.7164 39.3713 22.5481ZM11.8608 24.3471C12.3097 26.6762 12.7824 28.9919 13.2542 31.3033L13.2542 31.3033L13.2542 31.3034L13.2543 31.3035L13.2543 31.3036L13.2543 31.3036C14.3861 36.8481 15.5129 42.3686 16.2955 47.9929C16.6448 50.3658 17.3305 50.4545 19.7283 50.6207C19.285 44.4049 18.5444 38.2317 17.8018 32.0417L17.8018 32.0414C17.4945 29.4802 17.1869 26.9161 16.8998 24.345C15.2202 24.3471 13.5405 24.3471 11.8608 24.3471ZM18.0844 24.3431C18.2317 25.5621 18.3805 26.7794 18.5291 27.9957L18.5292 27.9958C19.4547 35.5691 20.3748 43.098 20.9128 50.6907C22.3133 50.7482 23.7105 50.7142 25.0892 50.6806H25.0894H25.0894H25.0895H25.0895H25.0895H25.0896H25.0896H25.0897H25.0897H25.0897H25.0899H25.0901H25.0903H25.0904H25.0906H25.0908H25.091H25.0911H25.0913H25.0915L25.2904 50.6758C25.2821 50.6364 25.2776 50.5942 25.2776 50.5492C25.2228 47.9013 25.1431 45.2617 25.0636 42.6279C24.88 36.544 24.6973 30.4911 24.8239 24.4382C24.8239 24.3937 24.8274 24.3516 24.834 24.3119C22.5841 24.3301 20.3342 24.3389 18.0844 24.3431ZM25.9917 24.3017C25.9994 24.3444 26.0034 24.3899 26.0034 24.4382C25.9385 30.7081 26.1058 36.9312 26.2727 43.141V43.1411V43.1411V43.1412V43.1413V43.1414V43.1415V43.1416C26.3391 45.6122 26.4054 48.0807 26.4571 50.5492C26.4571 50.5848 26.4543 50.6187 26.449 50.6508C26.8165 50.6446 27.1823 50.6405 27.5461 50.6405C27.9612 50.6405 28.3999 50.6524 28.8515 50.6646C29.7203 50.688 30.6371 50.7128 31.5261 50.657C31.477 50.5782 31.4478 50.4814 31.4478 50.3666C31.1855 45.2983 31.5906 40.291 31.9966 35.2742C32.2901 31.6467 32.584 28.0142 32.6263 24.35C31.6317 24.2897 30.6527 24.2318 29.7237 24.2558C28.4797 24.2748 27.2357 24.2898 25.9917 24.3017ZM33.8066 24.4176C33.7979 28.2148 33.4869 31.9781 33.1762 35.7372C32.7743 40.5992 32.373 45.4542 32.6273 50.3666C32.6273 50.4306 32.6182 50.489 32.6017 50.5418C33.0874 50.4646 33.5542 50.3503 33.988 50.184C34.314 50.061 34.544 49.9979 34.7066 49.9532L34.7066 49.9532C34.8918 49.9023 34.9896 49.8754 35.0427 49.8114C35.1021 49.7397 35.1053 49.6214 35.112 49.3705C35.1174 49.1665 35.1252 48.8749 35.1675 48.4494C35.3931 46.0655 35.8993 43.7169 36.4026 41.3817C36.7089 39.9607 37.014 38.5446 37.2543 37.1285C37.2945 36.8453 37.3347 36.5609 37.3751 36.2757C37.6988 33.9866 38.0304 31.6414 38.4338 29.3683C38.5285 28.8445 38.691 28.2401 38.8634 27.5986L38.8634 27.5985L38.8634 27.5985C39.2003 26.3454 39.5751 24.9513 39.5562 23.7417C37.8149 24.5028 35.8068 24.5175 33.8066 24.4176ZM14.5553 43.0822C14.5002 42.6967 14.4455 42.3116 14.3908 41.9265L14.3902 41.9219L14.3901 41.9218L14.3901 41.9216L14.3901 41.9215L14.3901 41.9215L14.3901 41.9215L14.3901 41.9214C14.2114 40.6627 14.0327 39.4039 13.8388 38.1299C13.7805 38.2148 13.6931 38.2814 13.5738 38.3157C13.3834 38.3431 13.1849 38.3458 12.9881 38.3486H12.988C12.528 38.355 12.0768 38.3612 11.7591 38.6809C11.623 38.8178 11.5323 38.9776 11.4416 39.1374C11.3508 39.2972 11.2601 39.4569 11.124 39.5939C11.0397 39.6787 10.8867 39.7932 10.7141 39.9224L10.714 39.9224C10.144 40.349 9.35993 40.9357 10.126 41.1459C10.6704 41.3285 10.6704 42.0589 10.126 42.2415C9.21867 42.5154 8.76502 42.9719 9.76306 43.5197C9.78294 43.5263 9.80766 43.535 9.83634 43.5449C10.2003 43.6718 11.2015 44.0208 11.0333 43.4284C10.8518 42.8806 11.5777 42.4241 11.9406 42.8806C12.485 43.4284 13.3016 43.7023 13.9367 43.1545C14.133 42.9898 14.3647 42.9915 14.5553 43.0822ZM36.4376 48.4494C36.4042 48.4494 36.3724 48.4517 36.3421 48.4561C36.5925 46.0523 36.9728 43.6665 37.4131 41.2888C37.5329 41.3338 37.6659 41.3263 37.799 41.2371C37.8387 41.197 37.9309 41.1395 38.0141 41.0874L38.0142 41.0873L38.0144 41.0873C38.0905 41.0396 38.1593 40.9967 38.1736 40.976C38.2526 41.0707 38.2526 41.2412 38.2526 41.3284C38.3434 41.6023 38.3434 41.9674 38.2526 42.3326C38.2526 42.7891 38.7063 42.9717 39.0692 42.7891L39.0693 42.7891C39.4322 42.6065 39.7951 42.4239 40.158 42.4239C40.6116 42.4239 40.6116 42.6065 40.5209 43.063C40.4497 43.3496 40.574 43.5659 40.7624 43.6788C40.6986 44.0441 40.7001 44.4585 40.7016 44.8794V44.8795L40.702 45.0091C40.4823 45.0267 40.261 45.1593 40.1576 45.4367C40.0602 45.7797 39.8061 45.9123 39.5494 46.0462C39.3278 46.1619 39.1042 46.2785 38.9781 46.5323C38.8466 46.7639 38.8104 47.0316 38.8307 47.3091C38.5688 47.2663 38.2833 47.392 38.1615 47.719C38.1265 47.8246 38.0915 47.8759 38.0721 47.9043C38.0648 47.9151 38.0597 47.9225 38.0577 47.9284C38.0318 47.9 38.0059 47.8653 37.98 47.8306C37.9498 47.79 37.9195 47.7494 37.8893 47.719C37.6171 47.3538 37.0727 47.5364 36.982 47.9929C36.8912 48.2668 36.8005 48.4494 36.4376 48.4494ZM38.0871 47.9575C38.1119 47.9792 38.1367 47.9929 38.1615 47.9929C38.137 47.9806 38.1175 47.9716 38.1023 47.9646L38.102 47.9644L38.0871 47.9575ZM33.1716 13.574C33.1094 13.574 33.0485 13.5755 32.989 13.5785C32.5787 12.904 32.4635 12.1389 33.2621 11.6567C33.9879 11.1089 34.8952 11.3828 35.1674 12.2045C35.4396 12.8436 36.2562 12.661 36.2562 12.0219C36.4377 10.0134 39.1596 10.9263 38.4338 12.2958C38.1616 12.8436 38.7967 13.3914 39.3411 13.0262C39.704 12.661 39.7947 14.6695 39.7947 14.8521C39.7926 14.8608 39.7906 14.8694 39.7888 14.878C39.273 14.9502 38.7696 15.1304 38.2689 15.3097C37.734 15.5013 37.2021 15.6917 36.6612 15.7483C36.6242 15.6652 36.5816 15.5799 36.5287 15.4912C36.1276 14.8186 35.4311 14.7407 34.7656 14.8557C34.5647 14.1271 34.1007 13.574 33.1716 13.574ZM40.164 19.8976C40.1344 19.6428 40.2371 19.3568 40.5206 19.2345C40.6569 19.1757 40.8726 19.1169 41.1147 19.0509C42.001 18.8094 43.2421 18.4712 42.2445 17.6824C42.1267 17.6035 41.992 17.5757 41.855 17.5475C41.6753 17.5105 41.4916 17.4727 41.3372 17.3172C41.2264 17.2058 41.2171 17.0944 41.2059 16.9622C41.1989 16.8778 41.1911 16.7849 41.1557 16.6782C40.667 15.5717 39.2321 16.038 37.9314 16.4608C37.651 16.5519 37.3768 16.6411 37.1197 16.712C37.1338 16.7309 37.1485 16.7501 37.1638 16.7694C37.5267 17.1346 37.7082 17.3172 37.7989 17.865C37.9945 18.7703 37.819 19.5908 37.3962 20.224C38.3195 20.1321 39.2422 20.0241 40.164 19.8976ZM29.8203 17.0236C29.6154 16.9697 29.4427 16.7992 29.3842 16.5944C29.1967 16.4928 28.9602 16.4042 28.7391 16.3213C28.5625 16.2551 28.3957 16.1926 28.2715 16.1301C27.9086 15.9475 27.9086 15.3084 28.2715 15.1258C28.9973 14.852 28.9973 14.3042 28.2715 13.3912C28.1354 13.4368 27.9993 13.4597 27.8632 13.4825C27.7271 13.5053 27.591 13.5281 27.4549 13.5738C27.2281 13.6194 27.0239 13.6879 26.8198 13.7564L26.8198 13.7564C26.6157 13.8249 26.4115 13.8933 26.1847 13.939C26.1483 13.9495 26.1127 13.9557 26.0783 13.9582C25.8694 14.5624 25.4255 15.0894 24.7249 15.3741C24.8897 15.7401 24.9373 16.1372 24.8077 16.5308C25.8293 16.743 26.546 17.1646 26.9108 18.4126C27.1509 19.2581 27.0337 20.0636 26.5854 20.697C26.8575 20.6969 27.1295 20.696 27.4015 20.6945C27.4921 20.5851 27.6309 20.5124 27.8178 20.5124C28.7252 20.695 29.0881 20.1472 28.8159 18.869C28.5437 18.5951 28.6344 18.1387 28.9066 17.9561C29.0109 17.9036 29.1284 17.8579 29.2453 17.8124L29.2453 17.8124L29.2453 17.8124L29.2453 17.8124L29.2453 17.8124L29.2454 17.8124L29.2454 17.8123L29.2454 17.8123L29.2454 17.8123L29.2454 17.8123L29.2454 17.8123L29.2455 17.8123L29.2455 17.8123L29.2455 17.8123L29.2455 17.8123C29.6691 17.6475 30.0831 17.4864 29.8203 17.0236ZM30.9287 16.192L30.8465 16.2951C31.0791 16.5666 31.2358 16.8975 31.2656 17.317C31.2656 18.1142 30.7372 18.4763 30.1697 18.7551C30.5714 19.4154 30.4916 20.1074 30.1113 20.6548C31.5203 20.6202 32.9281 20.5621 34.3345 20.4724C34.4243 20.3854 34.5508 20.33 34.7141 20.33C36.3472 20.33 37.3453 18.6866 36.1658 17.4085L36.1657 17.4085C35.8028 17.0433 35.8028 17.0433 35.6214 16.5868C35.3719 16.1474 35.2081 15.967 34.8943 15.9861C34.8553 16.5939 33.8956 16.7564 33.8068 16.1303C33.7608 16.0841 33.7381 16.0144 33.7269 15.945L33.716 15.9477C33.716 15.8699 33.7131 15.7963 33.7074 15.7266C33.6983 15.681 33.6935 15.6369 33.6926 15.5945C33.5444 14.5684 32.7147 14.5557 31.8107 15.2174C31.4916 15.4849 31.2037 15.8465 30.9287 16.192ZM16.6582 12.8435C16.5683 12.8226 16.4753 12.806 16.3805 12.7937C16.3984 12.7422 16.4161 12.6906 16.4337 12.6392L16.4339 12.6387C16.6873 11.9006 16.9343 11.1808 17.6566 10.6522C18.0006 10.3753 19.6484 9.73111 20.2671 10.1519C20.1971 10.516 20.2244 10.9036 20.3785 11.2913C20.56 11.7478 21.3766 11.9304 21.4673 11.2913C21.4986 11.1654 21.5171 11.0436 21.5238 10.9261H21.558C21.5461 10.894 21.5357 10.8616 21.5268 10.8292C21.5272 10.7032 21.5139 10.5823 21.4884 10.4671C21.52 9.88966 21.9811 9.37405 22.5561 9.37405C22.8283 9.19145 23.1005 9.28275 23.3727 9.55664C23.8263 9.73924 23.917 10.0131 23.6449 10.5609C23.1005 10.8348 23.1005 11.6565 23.8263 11.6565C25.3687 11.6565 25.6409 14.0302 24.0985 14.3954C24.0551 14.4063 24.0157 14.4205 23.9799 14.4374C23.0308 13.6595 21.6009 13.4007 21.0586 14.454C20.3747 14.095 19.4182 14.2033 18.4995 14.5127C18.345 13.7317 17.6753 13.1128 16.6582 12.8435ZM10.8514 20.2386C10.3977 19.9647 10.0348 19.5995 9.76263 19.143C9.58117 18.9604 9.49044 18.6865 9.39971 18.4126C8.94605 17.6822 9.3997 17.1345 10.8514 16.8606C11.3051 17.0432 11.7587 16.7693 11.668 16.2215C11.6281 16.0408 11.5926 15.8602 11.5672 15.6805L11.5772 15.6737L11.5655 15.6682C11.4778 15.0349 11.5182 14.4139 11.9402 13.8478C12.5753 13.1174 14.1177 12.8435 14.2992 14.3042L14.3918 14.2809C14.4159 14.3472 14.4454 14.4158 14.4806 14.4868C14.6621 15.0346 15.5694 14.7607 15.5694 14.2129C15.5612 14.1425 15.5505 14.0732 15.5375 14.005C15.7499 14.0091 16.142 14.059 16.4029 14.0922C16.5356 14.1091 16.6344 14.1216 16.6582 14.1216C17.2091 14.3434 17.4255 14.6324 17.3886 14.9888C16.592 15.4295 16.2483 16.199 16.3229 16.9061C15.6235 17.0737 14.9901 17.5022 14.7529 18.1387C14.3305 19.1777 15.0006 19.948 15.9343 20.5127C14.3248 20.4751 12.7148 20.4418 11.1048 20.4246C11.0669 20.3867 11.0217 20.3616 10.9723 20.3481C10.9385 20.3092 10.8985 20.2724 10.8514 20.2386ZM19.1803 20.5907C21.0882 20.6358 22.9952 20.6757 24.9006 20.6907C24.946 20.6229 25.0103 20.5618 25.0962 20.5125C27.3645 19.2343 24.9147 17.6822 23.7352 17.4996C23.2816 17.4996 23.1909 16.8606 23.4631 16.5867C24.4611 15.5824 21.5577 13.5739 22.0114 16.1302L22.0042 16.132C22.0069 16.1614 22.0093 16.1912 22.0114 16.2215C22.1021 16.8606 21.0133 17.0432 20.9226 16.4041C20.8969 16.2568 20.8775 16.1166 20.8639 15.9833C20.5904 15.1052 19.5084 15.4266 19.0172 15.6737C18.8358 15.6737 18.6543 15.765 18.4729 15.8563C18.3837 15.8819 18.307 15.913 18.2421 15.9499C18.1787 16.07 18.1045 16.1911 18.0191 16.3128C18.0001 16.3396 17.9801 16.3642 17.9592 16.3867C17.9413 16.5731 17.9879 16.8078 18.0862 17.0992C18.3234 17.2377 18.521 17.4307 18.6543 17.6822C18.9265 18.0474 18.6543 18.5039 18.2007 18.5039C17.5953 18.4785 17.1302 18.2626 16.8131 17.9445C16.4738 18.0416 16.3315 18.502 16.386 19.3256C16.5247 19.4651 16.7162 19.5513 16.8799 19.6249L16.8799 19.6249L16.88 19.625L16.8801 19.625L16.8804 19.6252L16.8804 19.6252L16.8805 19.6252L16.8806 19.6252L16.8806 19.6252C16.9309 19.6479 16.9785 19.6693 17.0212 19.6908C17.5116 20.0198 18.1494 20.2006 18.7354 20.3667L18.7355 20.3667C18.7999 20.385 18.8636 20.4031 18.9265 20.4212C19.0343 20.4618 19.1181 20.5207 19.1803 20.5907ZM41.5871 44.9034V44.9034C41.5529 44.5382 41.5175 44.1597 41.7908 43.8847C42.6074 43.063 43.6961 44.5238 43.6961 45.2541C43.6961 45.8019 44.3313 45.9845 44.6942 45.6193H45.7829C45.8737 45.8019 45.8737 46.0758 45.7829 46.2584C45.6922 46.6236 45.5108 46.9888 45.3293 47.354C44.6942 48.3582 43.6961 49.1799 42.6981 48.0843C42.5166 47.9018 42.2444 47.9018 41.9723 47.993L41.9089 48.0358C41.6112 48.2378 41.0392 48.6256 40.702 48.5408C40.1576 48.4495 39.704 47.4453 40.0669 46.9888C40.1335 46.8547 40.347 46.7698 40.5276 46.698C40.5928 46.6721 40.6538 46.6478 40.702 46.6236C40.9174 46.4069 41.0192 46.1902 41.1422 45.9282C41.1666 45.8762 41.1918 45.8225 41.2189 45.7666C41.425 45.7174 41.6093 45.5429 41.6093 45.2541C41.6093 45.1415 41.5983 45.0233 41.5871 44.9036V44.9035V44.9035V44.9035V44.9034ZM5.1001 44.4709C5.34728 44.4222 5.60414 44.5248 5.66991 44.8293C5.70857 44.9075 5.72735 44.9916 5.72713 45.0745C5.92371 45.6713 6.50795 46.1011 7.05068 46.5004C7.31603 46.6956 7.57145 46.8836 7.76679 47.0801C8.31118 47.6279 8.58337 48.267 8.49264 48.9974C8.32996 50.798 6.63597 51.0578 5.37181 50.3029C4.29956 50.9218 2.3807 50.8927 1.50636 50.0929C0.186505 48.8478 1.56662 46.999 2.91919 46.3304C2.97647 45.1754 3.87083 44.2355 5.1001 44.4709ZM3.86536 46.441C3.77919 45.7474 4.02037 45.4655 4.66665 45.5171C4.89014 46.1895 5.51999 46.6406 6.05299 47.0223L6.13364 47.0801C6.18353 47.1178 6.23684 47.1572 6.29218 47.198L6.29221 47.198C6.63939 47.4544 7.06589 47.7694 7.22241 48.0844C7.76679 49.2713 6.67802 49.9103 5.67998 49.18C5.40779 48.9974 5.1356 48.9061 4.8634 49.18C4.40975 49.6364 3.32098 49.6364 2.68586 49.4538C1.14344 49.0887 2.59513 47.4453 3.50244 47.1714C3.77463 47.0801 3.95609 46.8062 3.86536 46.441Z" fill="#E46D42"/>
<path fill-rule="evenodd" clip-rule="evenodd" d="M23.7351 2.80092C23.7351 2.61834 23.8259 2.43575 23.9166 2.25316L23.9166 2.25314C24.0981 1.79666 24.2795 1.88795 24.6424 2.43574C24.6424 2.89222 25.2776 3.25741 25.6405 2.80092C26.2756 1.97925 27.0014 2.52704 27.2736 3.34871C27.4551 3.98779 27.2736 4.62687 26.82 5.17465C26.5478 5.63114 26.0034 6.17892 25.459 6.36152C24.6207 6.5724 24.3203 6.18794 23.978 5.74986L23.978 5.74984C23.8757 5.61894 23.7696 5.48326 23.6444 5.35725C23.1907 4.80946 22.7371 4.62687 22.0112 4.62687C21.8751 4.62687 21.739 4.64969 21.603 4.67252C21.4669 4.69534 21.3308 4.71817 21.1947 4.71817C20.3781 4.35298 20.3781 3.89649 21.1947 3.44001C21.6323 3.21984 22.1285 3.23565 22.5891 3.25032C22.7015 3.2539 22.8118 3.25741 22.9185 3.25741C23.0079 3.25741 23.0863 3.24081 23.1536 3.21152C23.3939 3.25214 23.6544 3.12601 23.7351 2.80092ZM22.8116 2.07024C22.7471 2.06989 22.6829 2.06929 22.6191 2.0687C21.7383 2.06049 20.9308 2.05296 20.1966 2.70963C19.6522 3.25741 19.0171 4.17038 19.38 4.90076C19.7656 5.67661 20.4241 5.67409 21.1301 5.6714C21.421 5.67029 21.72 5.66915 22.0112 5.72244C22.6477 5.80783 23.0262 6.21267 23.4066 6.61952C23.8396 7.08265 24.275 7.54838 25.0961 7.54838C27.0014 7.54838 28.7253 5.26595 28.4531 3.44001C28.229 1.93632 26.8973 0.742208 25.6741 1.33632C25.0358 0.120999 23.3159 0.543465 22.8116 2.07024ZM27.7272 9.92244C27.7272 7.64001 26.0033 9.00947 25.6404 10.3789C25.5332 10.8104 25.1095 10.8914 24.8553 10.7349C24.8481 10.7553 24.8404 10.7755 24.8322 10.7955C25.6533 11.1832 26.1289 11.9997 26.2077 12.8513C26.3 12.8242 26.394 12.796 26.4891 12.7675C27.7514 12.3884 29.2237 11.9463 30.0861 13.2086C30.6726 13.9954 30.3699 14.8764 29.7493 15.5134C29.8146 15.5459 29.8794 15.5792 29.9433 15.6137C30.0445 15.5017 30.1426 15.3904 30.2392 15.2808L30.2392 15.2808L30.2392 15.2808C30.7467 14.7051 31.2109 14.1785 31.8406 13.867C31.2279 12.3834 31.9962 11.0959 33.0817 10.5715L33.0803 10.5615C33.0387 10.268 32.863 9.99375 32.6941 9.7299L32.6941 9.72989C32.5112 9.44444 32.3362 9.17118 32.3472 8.89891C32.2655 9.28223 31.5278 9.26302 31.3565 8.91817C30.3946 7.06301 29.5035 8.69962 28.996 9.79874C28.997 9.83936 28.9975 9.8806 28.9975 9.92244L28.9454 9.90934C28.9162 9.97354 28.8885 10.0353 28.8623 10.0936L28.816 10.1963C28.5438 10.7441 27.7272 10.4702 27.7272 9.92244ZM28.6453 8.31783C27.7814 6.83038 25.5762 7.6797 24.8642 9.65452C24.6855 9.06069 24.2218 8.51561 23.5541 8.27848C22.4383 7.8855 21.2196 8.42459 20.6151 9.3226C20.1837 9.06008 19.646 8.91756 19.1083 8.91756C18.201 8.91756 17.2937 9.46535 16.5678 10.0131C15.8167 10.643 15.627 11.2294 15.4028 11.9222C15.306 12.2213 15.2027 12.5403 15.0451 12.8912C14.4754 12.1493 13.5209 11.7764 12.4846 12.0218C10.9344 12.3932 10.5253 13.9733 10.6221 15.3853C9.54159 15.2358 8.52099 15.7045 8.31093 17.0432C8.05742 18.4887 9.14191 19.9343 10.2449 20.7897C10.182 20.9919 10.2236 21.2352 10.3697 21.4049C10.822 23.871 11.3765 26.3027 11.9305 28.7318L11.9305 28.7319L11.9305 28.7319L11.9305 28.7319L11.9305 28.7319L11.9305 28.7319L11.9305 28.732L11.9305 28.732L11.9305 28.732L11.9305 28.732L11.9305 28.7321L11.9305 28.7321L11.9305 28.7321L11.9305 28.7321L11.9305 28.7322L11.9306 28.7322L11.9306 28.7322L11.9306 28.7322C12.5778 31.5704 13.2242 34.4051 13.7058 37.287C13.5835 37.1715 13.4151 37.1031 13.2108 37.1288C12.934 37.1845 12.6573 37.1808 12.3908 37.1771C11.7837 37.1689 11.2301 37.1613 10.8518 37.8592C10.784 37.9616 10.7288 38.0768 10.6721 38.1952C10.5772 38.3934 10.4779 38.6007 10.3074 38.7722C10.2072 38.9235 10.0516 39.0191 9.88654 39.1205C9.75274 39.2027 9.61271 39.2887 9.49086 39.4113C8.65339 40.1243 8.27332 40.9755 8.74037 41.6052C8.29173 41.891 7.94844 42.2916 7.94844 42.8806C7.94844 43.611 8.58356 44.25 9.12794 44.5239C10.0752 45.0005 11.527 45.1217 11.9783 44.3195C12.8575 44.752 13.8893 44.7257 14.6919 44.031C14.7991 44.7695 14.9092 45.5109 15.0252 46.2583C15.047 46.4557 15.0584 46.7639 15.0718 47.1296C15.1143 48.2857 15.1779 50.0163 15.6604 50.6405C17.0385 52.1733 20.4464 51.9555 22.7777 51.8065C23.3625 51.7691 23.8795 51.7361 24.2798 51.7361C24.6358 51.7361 24.9902 51.7369 25.3434 51.7376C28.8608 51.7452 32.2489 51.7524 35.7119 51.0057C35.9841 50.9144 36.0748 50.7318 36.1655 50.4579C36.1866 50.1642 36.2098 49.8708 36.2352 49.5777C36.2948 49.6065 36.3623 49.6268 36.4376 49.6362C36.9723 49.6362 37.3903 49.4405 37.6916 49.0747C37.9082 49.179 38.1594 49.2257 38.4337 49.1797C38.8243 49.1142 39.0281 48.8606 39.1791 48.554C39.2032 48.6122 39.2271 48.6688 39.2503 48.7234C39.9758 50.1023 41.1309 49.7517 42.2068 49.2082C44.0469 50.6981 46.1867 48.8741 46.8717 46.8062C47.0532 45.9845 47.0532 44.9802 46.3273 44.4325C45.8304 44.0435 45.2998 44.0604 44.8175 44.2566C44.4543 43.1604 43.4625 42.2797 42.2444 42.4239C42.0276 42.436 41.8412 42.4691 41.6808 42.5203C41.6424 41.9825 41.4011 41.5119 40.7931 41.3284C40.3361 41.2134 39.8073 41.2794 39.3197 41.4351C39.2859 41.0015 39.1995 40.5664 38.9785 40.2328C38.6599 39.784 38.1624 39.7404 37.6744 39.9123C37.9805 38.3353 38.3071 36.761 38.6337 35.1866L38.634 35.1851C39.4748 31.1322 40.3159 27.0782 40.8078 22.9739C40.8836 22.8483 40.8927 22.7006 40.856 22.5617C40.9371 21.8498 41.0074 21.1364 41.065 20.4211C41.065 20.3562 41.0577 20.2968 41.044 20.2429C41.2523 20.1798 41.4869 20.1264 41.7313 20.0707C42.5945 19.8741 43.5806 19.6496 43.9684 18.8693C44.5634 17.6717 43.4061 17.0351 42.5862 16.5842C42.531 16.5538 42.4774 16.5243 42.4259 16.4956C42.3927 16.4956 42.3595 16.4956 42.3352 16.5045V16.313C42.2445 16.176 42.1764 16.0619 42.1084 15.9478C42.0403 15.8337 41.9723 15.7195 41.8815 15.5826C41.6094 15.2174 41.4279 15.0348 40.9742 14.9435C40.9578 14.9389 40.9413 14.9345 40.9249 14.9302C41.1009 13.8558 40.6509 12.0199 39.703 11.7733C39.5901 9.88784 36.6281 9.0098 35.5425 10.8554C35.1533 10.5057 34.6928 10.3397 34.2268 10.3223C34.0742 9.45058 33.555 8.41493 32.8082 7.9139C32.5188 7.70596 32.2107 7.63063 31.9523 7.68791C30.8282 6.11023 29.5776 6.93803 28.6453 8.31783ZM39.3713 22.5481C39.3365 22.4447 39.2964 22.3442 39.2504 22.2471C38.7964 21.2193 38.7683 21.2271 38.3893 21.3325C38.1623 21.3957 37.8093 21.4938 37.1636 21.4254C36.4722 21.3622 35.6501 21.4742 34.8784 21.5793L34.8783 21.5793C34.5361 21.626 34.2039 21.6713 33.8973 21.6993C31.1753 21.8819 28.3627 21.8819 25.6408 21.8819C24.0344 21.852 22.4183 21.8122 20.7957 21.7723L20.7955 21.7723C17.6626 21.6953 14.5053 21.6176 11.3466 21.6088C11.4417 22.1308 11.5385 22.652 11.6367 23.1724C11.6749 23.1645 11.7156 23.1602 11.759 23.1602C13.3586 23.1602 14.9682 23.1703 16.5811 23.1805C19.8172 23.2008 23.0668 23.2212 26.276 23.1602C27.2677 23.1359 28.4786 23.2089 29.7833 23.2875C33.0475 23.4843 36.8986 23.7164 39.3713 22.5481ZM11.8608 24.3471C12.3097 26.6762 12.7824 28.9919 13.2542 31.3033L13.2542 31.3033L13.2542 31.3034L13.2543 31.3035L13.2543 31.3036L13.2543 31.3036C14.3861 36.8481 15.5129 42.3686 16.2955 47.9929C16.6448 50.3658 17.3305 50.4545 19.7283 50.6207C19.285 44.4049 18.5444 38.2317 17.8018 32.0417L17.8018 32.0414C17.4945 29.4802 17.1869 26.9161 16.8998 24.345C15.2202 24.3471 13.5405 24.3471 11.8608 24.3471ZM18.0844 24.3431C18.2317 25.5621 18.3805 26.7794 18.5291 27.9957L18.5292 27.9958C19.4547 35.5691 20.3748 43.098 20.9128 50.6907C22.3133 50.7482 23.7105 50.7142 25.0892 50.6806H25.0894H25.0894H25.0895H25.0895H25.0895H25.0896H25.0896H25.0897H25.0897H25.0897H25.0899H25.0901H25.0903H25.0904H25.0906H25.0908H25.091H25.0911H25.0913H25.0915L25.2904 50.6758C25.2821 50.6364 25.2776 50.5942 25.2776 50.5492C25.2228 47.9013 25.1431 45.2617 25.0636 42.6279C24.88 36.544 24.6973 30.4911 24.8239 24.4382C24.8239 24.3937 24.8274 24.3516 24.834 24.3119C22.5841 24.3301 20.3342 24.3389 18.0844 24.3431ZM25.9917 24.3017C25.9994 24.3444 26.0034 24.3899 26.0034 24.4382C25.9385 30.7081 26.1058 36.9312 26.2727 43.141V43.1411V43.1411V43.1412V43.1413V43.1414V43.1415V43.1416C26.3391 45.6122 26.4054 48.0807 26.4571 50.5492C26.4571 50.5848 26.4543 50.6187 26.449 50.6508C26.8165 50.6446 27.1823 50.6405 27.5461 50.6405C27.9612 50.6405 28.3999 50.6524 28.8515 50.6646C29.7203 50.688 30.6371 50.7128 31.5261 50.657C31.477 50.5782 31.4478 50.4814 31.4478 50.3666C31.1855 45.2983 31.5906 40.291 31.9966 35.2742C32.2901 31.6467 32.584 28.0142 32.6263 24.35C31.6317 24.2897 30.6527 24.2318 29.7237 24.2558C28.4797 24.2748 27.2357 24.2898 25.9917 24.3017ZM33.8066 24.4176C33.7979 28.2148 33.4869 31.9781 33.1762 35.7372C32.7743 40.5992 32.373 45.4542 32.6273 50.3666C32.6273 50.4306 32.6182 50.489 32.6017 50.5418C33.0874 50.4646 33.5542 50.3503 33.988 50.184C34.314 50.061 34.544 49.9979 34.7066 49.9532L34.7066 49.9532C34.8918 49.9023 34.9896 49.8754 35.0427 49.8114C35.1021 49.7397 35.1053 49.6214 35.112 49.3705C35.1174 49.1665 35.1252 48.8749 35.1675 48.4494C35.3931 46.0655 35.8993 43.7169 36.4026 41.3817C36.7089 39.9607 37.014 38.5446 37.2543 37.1285C37.2945 36.8453 37.3347 36.5609 37.3751 36.2757C37.6988 33.9866 38.0304 31.6414 38.4338 29.3683C38.5285 28.8445 38.691 28.2401 38.8634 27.5986L38.8634 27.5985L38.8634 27.5985C39.2003 26.3454 39.5751 24.9513 39.5562 23.7417C37.8149 24.5028 35.8068 24.5175 33.8066 24.4176ZM14.5553 43.0822C14.5002 42.6967 14.4455 42.3116 14.3908 41.9265L14.3902 41.9219L14.3901 41.9218L14.3901 41.9216L14.3901 41.9215L14.3901 41.9215L14.3901 41.9215L14.3901 41.9214C14.2114 40.6627 14.0327 39.4039 13.8388 38.1299C13.7805 38.2148 13.6931 38.2814 13.5738 38.3157C13.3834 38.3431 13.1849 38.3458 12.9881 38.3486H12.988C12.528 38.355 12.0768 38.3612 11.7591 38.6809C11.623 38.8178 11.5323 38.9776 11.4416 39.1374C11.3508 39.2972 11.2601 39.4569 11.124 39.5939C11.0397 39.6787 10.8867 39.7932 10.7141 39.9224L10.714 39.9224C10.144 40.349 9.35993 40.9357 10.126 41.1459C10.6704 41.3285 10.6704 42.0589 10.126 42.2415C9.21867 42.5154 8.76502 42.9719 9.76306 43.5197C9.78294 43.5263 9.80766 43.535 9.83634 43.5449C10.2003 43.6718 11.2015 44.0208 11.0333 43.4284C10.8518 42.8806 11.5777 42.4241 11.9406 42.8806C12.485 43.4284 13.3016 43.7023 13.9367 43.1545C14.133 42.9898 14.3647 42.9915 14.5553 43.0822ZM36.4376 48.4494C36.4042 48.4494 36.3724 48.4517 36.3421 48.4561C36.5925 46.0523 36.9728 43.6665 37.4131 41.2888C37.5329 41.3338 37.6659 41.3263 37.799 41.2371C37.8387 41.197 37.9309 41.1395 38.0141 41.0874L38.0142 41.0873L38.0144 41.0873C38.0905 41.0396 38.1593 40.9967 38.1736 40.976C38.2526 41.0707 38.2526 41.2412 38.2526 41.3284C38.3434 41.6023 38.3434 41.9674 38.2526 42.3326C38.2526 42.7891 38.7063 42.9717 39.0692 42.7891L39.0693 42.7891C39.4322 42.6065 39.7951 42.4239 40.158 42.4239C40.6116 42.4239 40.6116 42.6065 40.5209 43.063C40.4497 43.3496 40.574 43.5659 40.7624 43.6788C40.6986 44.0441 40.7001 44.4585 40.7016 44.8794V44.8795L40.702 45.0091C40.4823 45.0267 40.261 45.1593 40.1576 45.4367C40.0602 45.7797 39.8061 45.9123 39.5494 46.0462C39.3278 46.1619 39.1042 46.2785 38.9781 46.5323C38.8466 46.7639 38.8104 47.0316 38.8307 47.3091C38.5688 47.2663 38.2833 47.392 38.1615 47.719C38.1265 47.8246 38.0915 47.8759 38.0721 47.9043C38.0648 47.9151 38.0597 47.9225 38.0577 47.9284C38.0318 47.9 38.0059 47.8653 37.98 47.8306C37.9498 47.79 37.9195 47.7494 37.8893 47.719C37.6171 47.3538 37.0727 47.5364 36.982 47.9929C36.8912 48.2668 36.8005 48.4494 36.4376 48.4494ZM38.0871 47.9575C38.1119 47.9792 38.1367 47.9929 38.1615 47.9929C38.137 47.9806 38.1175 47.9716 38.1023 47.9646L38.102 47.9644L38.0871 47.9575ZM33.1716 13.574C33.1094 13.574 33.0485 13.5755 32.989 13.5785C32.5787 12.904 32.4635 12.1389 33.2621 11.6567C33.9879 11.1089 34.8952 11.3828 35.1674 12.2045C35.4396 12.8436 36.2562 12.661 36.2562 12.0219C36.4377 10.0134 39.1596 10.9263 38.4338 12.2958C38.1616 12.8436 38.7967 13.3914 39.3411 13.0262C39.704 12.661 39.7947 14.6695 39.7947 14.8521C39.7926 14.8608 39.7906 14.8694 39.7888 14.878C39.273 14.9502 38.7696 15.1304 38.2689 15.3097C37.734 15.5013 37.2021 15.6917 36.6612 15.7483C36.6242 15.6652 36.5816 15.5799 36.5287 15.4912C36.1276 14.8186 35.4311 14.7407 34.7656 14.8557C34.5647 14.1271 34.1007 13.574 33.1716 13.574ZM40.164 19.8976C40.1344 19.6428 40.2371 19.3568 40.5206 19.2345C40.6569 19.1757 40.8726 19.1169 41.1147 19.0509C42.001 18.8094 43.2421 18.4712 42.2445 17.6824C42.1267 17.6035 41.992 17.5757 41.855 17.5475C41.6753 17.5105 41.4916 17.4727 41.3372 17.3172C41.2264 17.2058 41.2171 17.0944 41.2059 16.9622C41.1989 16.8778 41.1911 16.7849 41.1557 16.6782C40.667 15.5717 39.2321 16.038 37.9314 16.4608C37.651 16.5519 37.3768 16.6411 37.1197 16.712C37.1338 16.7309 37.1485 16.7501 37.1638 16.7694C37.5267 17.1346 37.7082 17.3172 37.7989 17.865C37.9945 18.7703 37.819 19.5908 37.3962 20.224C38.3195 20.1321 39.2422 20.0241 40.164 19.8976ZM29.8203 17.0236C29.6154 16.9697 29.4427 16.7992 29.3842 16.5944C29.1967 16.4928 28.9602 16.4042 28.7391 16.3213C28.5625 16.2551 28.3957 16.1926 28.2715 16.1301C27.9086 15.9475 27.9086 15.3084 28.2715 15.1258C28.9973 14.852 28.9973 14.3042 28.2715 13.3912C28.1354 13.4368 27.9993 13.4597 27.8632 13.4825C27.7271 13.5053 27.591 13.5281 27.4549 13.5738C27.2281 13.6194 27.0239 13.6879 26.8198 13.7564L26.8198 13.7564C26.6157 13.8249 26.4115 13.8933 26.1847 13.939C26.1483 13.9495 26.1127 13.9557 26.0783 13.9582C25.8694 14.5624 25.4255 15.0894 24.7249 15.3741C24.8897 15.7401 24.9373 16.1372 24.8077 16.5308C25.8293 16.743 26.546 17.1646 26.9108 18.4126C27.1509 19.2581 27.0337 20.0636 26.5854 20.697C26.8575 20.6969 27.1295 20.696 27.4015 20.6945C27.4921 20.5851 27.6309 20.5124 27.8178 20.5124C28.7252 20.695 29.0881 20.1472 28.8159 18.869C28.5437 18.5951 28.6344 18.1387 28.9066 17.9561C29.0109 17.9036 29.1284 17.8579 29.2453 17.8124L29.2453 17.8124L29.2453 17.8124L29.2453 17.8124L29.2453 17.8124L29.2454 17.8124L29.2454 17.8123L29.2454 17.8123L29.2454 17.8123L29.2454 17.8123L29.2454 17.8123L29.2455 17.8123L29.2455 17.8123L29.2455 17.8123L29.2455 17.8123C29.6691 17.6475 30.0831 17.4864 29.8203 17.0236ZM30.9287 16.192L30.8465 16.2951C31.0791 16.5666 31.2358 16.8975 31.2656 17.317C31.2656 18.1142 30.7372 18.4763 30.1697 18.7551C30.5714 19.4154 30.4916 20.1074 30.1113 20.6548C31.5203 20.6202 32.9281 20.5621 34.3345 20.4724C34.4243 20.3854 34.5508 20.33 34.7141 20.33C36.3472 20.33 37.3453 18.6866 36.1658 17.4085L36.1657 17.4085C35.8028 17.0433 35.8028 17.0433 35.6214 16.5868C35.3719 16.1474 35.2081 15.967 34.8943 15.9861C34.8553 16.5939 33.8956 16.7564 33.8068 16.1303C33.7608 16.0841 33.7381 16.0144 33.7269 15.945L33.716 15.9477C33.716 15.8699 33.7131 15.7963 33.7074 15.7266C33.6983 15.681 33.6935 15.6369 33.6926 15.5945C33.5444 14.5684 32.7147 14.5557 31.8107 15.2174C31.4916 15.4849 31.2037 15.8465 30.9287 16.192ZM16.6582 12.8435C16.5683 12.8226 16.4753 12.806 16.3805 12.7937C16.3984 12.7422 16.4161 12.6906 16.4337 12.6392L16.4339 12.6387C16.6873 11.9006 16.9343 11.1808 17.6566 10.6522C18.0006 10.3753 19.6484 9.73111 20.2671 10.1519C20.1971 10.516 20.2244 10.9036 20.3785 11.2913C20.56 11.7478 21.3766 11.9304 21.4673 11.2913C21.4986 11.1654 21.5171 11.0436 21.5238 10.9261H21.558C21.5461 10.894 21.5357 10.8616 21.5268 10.8292C21.5272 10.7032 21.5139 10.5823 21.4884 10.4671C21.52 9.88966 21.9811 9.37405 22.5561 9.37405C22.8283 9.19145 23.1005 9.28275 23.3727 9.55664C23.8263 9.73924 23.917 10.0131 23.6449 10.5609C23.1005 10.8348 23.1005 11.6565 23.8263 11.6565C25.3687 11.6565 25.6409 14.0302 24.0985 14.3954C24.0551 14.4063 24.0157 14.4205 23.9799 14.4374C23.0308 13.6595 21.6009 13.4007 21.0586 14.454C20.3747 14.095 19.4182 14.2033 18.4995 14.5127C18.345 13.7317 17.6753 13.1128 16.6582 12.8435ZM10.8514 20.2386C10.3977 19.9647 10.0348 19.5995 9.76263 19.143C9.58117 18.9604 9.49044 18.6865 9.39971 18.4126C8.94605 17.6822 9.3997 17.1345 10.8514 16.8606C11.3051 17.0432 11.7587 16.7693 11.668 16.2215C11.6281 16.0408 11.5926 15.8602 11.5672 15.6805L11.5772 15.6737L11.5655 15.6682C11.4778 15.0349 11.5182 14.4139 11.9402 13.8478C12.5753 13.1174 14.1177 12.8435 14.2992 14.3042L14.3918 14.2809C14.4159 14.3472 14.4454 14.4158 14.4806 14.4868C14.6621 15.0346 15.5694 14.7607 15.5694 14.2129C15.5612 14.1425 15.5505 14.0732 15.5375 14.005C15.7499 14.0091 16.142 14.059 16.4029 14.0922C16.5356 14.1091 16.6344 14.1216 16.6582 14.1216C17.2091 14.3434 17.4255 14.6324 17.3886 14.9888C16.592 15.4295 16.2483 16.199 16.3229 16.9061C15.6235 17.0737 14.9901 17.5022 14.7529 18.1387C14.3305 19.1777 15.0006 19.948 15.9343 20.5127C14.3248 20.4751 12.7148 20.4418 11.1048 20.4246C11.0669 20.3867 11.0217 20.3616 10.9723 20.3481C10.9385 20.3092 10.8985 20.2724 10.8514 20.2386ZM19.1803 20.5907C21.0882 20.6358 22.9952 20.6757 24.9006 20.6907C24.946 20.6229 25.0103 20.5618 25.0962 20.5125C27.3645 19.2343 24.9147 17.6822 23.7352 17.4996C23.2816 17.4996 23.1909 16.8606 23.4631 16.5867C24.4611 15.5824 21.5577 13.5739 22.0114 16.1302L22.0042 16.132C22.0069 16.1614 22.0093 16.1912 22.0114 16.2215C22.1021 16.8606 21.0133 17.0432 20.9226 16.4041C20.8969 16.2568 20.8775 16.1166 20.8639 15.9833C20.5904 15.1052 19.5084 15.4266 19.0172 15.6737C18.8358 15.6737 18.6543 15.765 18.4729 15.8563C18.3837 15.8819 18.307 15.913 18.2421 15.9499C18.1787 16.07 18.1045 16.1911 18.0191 16.3128C18.0001 16.3396 17.9801 16.3642 17.9592 16.3867C17.9413 16.5731 17.9879 16.8078 18.0862 17.0992C18.3234 17.2377 18.521 17.4307 18.6543 17.6822C18.9265 18.0474 18.6543 18.5039 18.2007 18.5039C17.5953 18.4785 17.1302 18.2626 16.8131 17.9445C16.4738 18.0416 16.3315 18.502 16.386 19.3256C16.5247 19.4651 16.7162 19.5513 16.8799 19.6249L16.8799 19.6249L16.88 19.625L16.8801 19.625L16.8804 19.6252L16.8804 19.6252L16.8805 19.6252L16.8806 19.6252L16.8806 19.6252C16.9309 19.6479 16.9785 19.6693 17.0212 19.6908C17.5116 20.0198 18.1494 20.2006 18.7354 20.3667L18.7355 20.3667C18.7999 20.385 18.8636 20.4031 18.9265 20.4212C19.0343 20.4618 19.1181 20.5207 19.1803 20.5907ZM41.5871 44.9034V44.9034C41.5529 44.5382 41.5175 44.1597 41.7908 43.8847C42.6074 43.063 43.6961 44.5238 43.6961 45.2541C43.6961 45.8019 44.3313 45.9845 44.6942 45.6193H45.7829C45.8737 45.8019 45.8737 46.0758 45.7829 46.2584C45.6922 46.6236 45.5108 46.9888 45.3293 47.354C44.6942 48.3582 43.6961 49.1799 42.6981 48.0843C42.5166 47.9018 42.2444 47.9018 41.9723 47.993L41.9089 48.0358C41.6112 48.2378 41.0392 48.6256 40.702 48.5408C40.1576 48.4495 39.704 47.4453 40.0669 46.9888C40.1335 46.8547 40.347 46.7698 40.5276 46.698C40.5928 46.6721 40.6538 46.6478 40.702 46.6236C40.9174 46.4069 41.0192 46.1902 41.1422 45.9282C41.1666 45.8762 41.1918 45.8225 41.2189 45.7666C41.425 45.7174 41.6093 45.5429 41.6093 45.2541C41.6093 45.1415 41.5983 45.0233 41.5871 44.9036V44.9035V44.9035V44.9035V44.9034ZM5.1001 44.4709C5.34728 44.4222 5.60414 44.5248 5.66991 44.8293C5.70857 44.9075 5.72735 44.9916 5.72713 45.0745C5.92371 45.6713 6.50795 46.1011 7.05068 46.5004C7.31603 46.6956 7.57145 46.8836 7.76679 47.0801C8.31118 47.6279 8.58337 48.267 8.49264 48.9974C8.32996 50.798 6.63597 51.0578 5.37181 50.3029C4.29956 50.9218 2.3807 50.8927 1.50636 50.0929C0.186505 48.8478 1.56662 46.999 2.91919 46.3304C2.97647 45.1754 3.87083 44.2355 5.1001 44.4709ZM3.86536 46.441C3.77919 45.7474 4.02037 45.4655 4.66665 45.5171C4.89014 46.1895 5.51999 46.6406 6.05299 47.0223L6.13364 47.0801C6.18353 47.1178 6.23684 47.1572 6.29218 47.198L6.29221 47.198C6.63939 47.4544 7.06589 47.7694 7.22241 48.0844C7.76679 49.2713 6.67802 49.9103 5.67998 49.18C5.40779 48.9974 5.1356 48.9061 4.8634 49.18C4.40975 49.6364 3.32098 49.6364 2.68586 49.4538C1.14344 49.0887 2.59513 47.4453 3.50244 47.1714C3.77463 47.0801 3.95609 46.8062 3.86536 46.441Z" fill="url(#paint0_linear)"/>
<defs>
<linearGradient id="paint0_linear" x1="23.9726" y1="-5.10558" x2="23.9726" y2="51.9111" gradientUnits="userSpaceOnUse">
<stop stop-color="#F8AF84"/>
<stop offset="1" stop-color="white" stop-opacity="0"/>
</linearGradient>
</defs>
</svg>
